<svg xmlns="http://www.w3.org/2000/svg" xmlns:xlink="http://www.w3.org/1999/xlink" width="500" zoomAndPan="magnify" viewBox="0 0 375 112.499997" height="150" preserveAspectRatio="xMidYMid meet" version="1.2"><defs/><g id="8dc13b0914"><g style="fill:#000000;fill-opacity:1;"><g transform="translate(0.829651, 88.108401)"><path style="stroke:none" d="M 8.15625 0 L 8.15625 -64.09375 L 32.28125 -64.09375 L 32.28125 -55.8125 L 16.203125 -55.8125 L 16.203125 -31 L 27.03125 -31 L 27.03125 -22.71875 L 16.203125 -22.71875 L 16.203125 0 Z M 8.15625 0 "/></g></g><g style="fill:#000000;fill-opacity:1;"><g transform="translate(37.184042, 88.108401)"><path style="stroke:none" d="M 16.203125 0 L 8.15625 0 L 8.15625 -64.09375 L 16.203125 -64.09375 Z M 16.203125 0 "/></g></g><g style="fill:#000000;fill-opacity:1;"><g transform="translate(61.53682, 88.108401)"><path style="stroke:none" d="M 14.921875 0 L 14.921875 -55.8125 L 5.828125 -55.8125 L 5.828125 -64.09375 L 31.921875 -64.09375 L 31.921875 -55.8125 L 22.953125 -55.8125 L 22.953125 0 Z M 14.921875 0 "/></g></g><g style="fill:#0070f3;fill-opacity:1;"><g transform="translate(99.298256, 88.108401)"><path style="stroke:none" d="M 8.15625 -3.375 L 8.15625 -60.703125 L 11.65625 -64.09375 L 28.890625 -64.09375 L 32.390625 -60.703125 L 32.390625 -45.796875 L 24.359375 -45.796875 L 24.359375 -55.8125 L 16.203125 -55.8125 L 16.203125 -8.390625 L 24.359375 -8.390625 L 24.359375 -18.171875 L 32.390625 -18.171875 L 32.390625 -3.375 L 28.890625 0 L 11.65625 0 Z M 8.15625 -3.375 "/></g></g><g style="fill:#0070f3;fill-opacity:1;"><g transform="translate(138.682178, 88.108401)"><path style="stroke:none" d="M 8.15625 -3.375 L 8.15625 -60.703125 L 11.65625 -64.09375 L 28.65625 -64.09375 L 32.15625 -60.703125 L 32.15625 -3.375 L 28.65625 0 L 11.65625 0 Z M 24.125 -8.390625 L 24.125 -55.8125 L 16.203125 -55.8125 L 16.203125 -8.390625 Z M 24.125 -8.390625 "/></g></g><g style="fill:#0070f3;fill-opacity:1;"><g transform="translate(178.998266, 88.108401)"><path style="stroke:none" d="M 8.15625 0 L 8.15625 -64.09375 L 28.546875 -64.09375 L 32.15625 -60.703125 L 32.15625 0 L 24.125 0 L 24.125 -55.8125 L 16.203125 -55.8125 L 16.203125 0 Z M 8.15625 0 "/></g></g><g style="fill:#0070f3;fill-opacity:1;"><g transform="translate(219.314354, 88.108401)"><path style="stroke:none" d="M 8.15625 0 L 8.15625 -64.09375 L 28.546875 -64.09375 L 32.15625 -60.703125 L 32.15625 0 L 24.125 0 L 24.125 -55.8125 L 16.203125 -55.8125 L 16.203125 0 Z M 8.15625 0 "/></g></g><g style="fill:#0070f3;fill-opacity:1;"><g transform="translate(259.630442, 88.108401)"><path style="stroke:none" d="M 8.15625 0 L 8.15625 -64.09375 L 32.15625 -64.09375 L 32.15625 -55.8125 L 16.203125 -55.8125 L 16.203125 -31 L 24.234375 -31 L 24.234375 -22.71875 L 16.203125 -22.71875 L 16.203125 -8.390625 L 32.15625 -8.390625 L 32.15625 0 Z M 8.15625 0 "/></g></g><g style="fill:#0070f3;fill-opacity:1;"><g transform="translate(297.033508, 88.108401)"><path style="stroke:none" d="M 8.15625 -3.375 L 8.15625 -60.703125 L 11.65625 -64.09375 L 28.890625 -64.09375 L 32.390625 -60.703125 L 32.390625 -45.796875 L 24.359375 -45.796875 L 24.359375 -55.8125 L 16.203125 -55.8125 L 16.203125 -8.390625 L 24.359375 -8.390625 L 24.359375 -18.171875 L 32.390625 -18.171875 L 32.390625 -3.375 L 28.890625 0 L 11.65625 0 Z M 8.15625 -3.375 "/></g></g><g style="fill:#0070f3;fill-opacity:1;"><g transform="translate(336.417441, 88.108401)"><path style="stroke:none" d="M 14.921875 0 L 14.921875 -55.8125 L 5.828125 -55.8125 L 5.828125 -64.09375 L 31.921875 -64.09375 L 31.921875 -55.8125 L 22.953125 -55.8125 L 22.953125 0 Z M 14.921875 0 "/></g></g></g></svg>